# xmcd CD database file
#
# Track frame offsets:
#	150
#	24476
#	40988
#	57661
#	75782
#	104304
#	127303
#	140660
#	158627
#	170298
#	186963
#	204667
#	218342
#	232351
#	249555
#	265276
#	277799
#	296767
#	306274
#	317618
#
# Disc length: 4449 seconds
#
# Revision: 0
# Processed by: cddbd v1.5.2PL0 Copyright (c) Steve Scherf et al.
# Submitted via: Feurio! 1.68 - http://www.feurio.com
#
DISCID=27115f14
DTITLE=Johnny Winter - II
DYEAR=2000
DGENRE=Bluesrock
TTITLE0=Johnny Winter  and Muddy Waters - Mannish Boy
TTITLE1=Illustrated Man
TTITLE2=Still Alive And Well
TTITLE3=Barefootin'
TTITLE4=Life Is Hard
TTITLE5=Highway 61 Revisited
TTITLE6=Ain't That Just Like A Woman
TTITLE7=Anything For Your Love
TTITLE8=Lights Out
TTITLE9=Talk Is Cheap
TTITLE10=Stranger
TTITLE11=Golden Olden Days Of Rock and Roll
TTITLE12=Ain't Nothing To Me
TTITLE13=Rock Me Baby
TTITLE14=Leland Mississippi Blues
TTITLE15=Rock and Roll People
TTITLE16=Ti's My Life Baby
TTITLE17=New York, New York
TTITLE18=The Crawl
TTITLE19=Look Up
EXTD=
EXTT0=
EXTT1=
EXTT2=
EXTT3=
EXTT4=
EXTT5=
EXTT6=
EXTT7=
EXTT8=
EXTT9=
EXTT10=
EXTT11=
EXTT12=
EXTT13=
EXTT14=
EXTT15=
EXTT16=
EXTT17=
EXTT18=
EXTT19=
PLAYORDER=
